<svg width="2353" height="527" viewBox="0 0 2353 527" fill="none" xmlns="http://www.w3.org/2000/svg">
<path fill-rule="evenodd" clip-rule="evenodd" d="M658.774 224.817L723.415 154.624C729.637 147.589 736.563 141.206 744.086 135.574C749.079 132.226 754.978 130.478 760.995 130.563C769.592 130.377 777.933 133.489 784.295 139.258C790.298 144.435 794.437 151.428 796.079 159.171C796.367 161.16 796.501 163.168 796.478 165.178C796.615 170.035 795.467 174.842 793.149 179.117C789.566 184.574 785.452 189.665 780.867 194.317L741.889 236.831L802.303 333.542C805.814 338.794 808.329 344.643 809.726 350.8C809.992 352.193 810.125 354.483 810.392 357.703C810.305 364.567 808.161 371.247 804.234 376.886C800.298 382.65 794.946 387.312 788.689 390.426C782.475 393.773 775.513 395.497 768.451 395.438C761.789 395.777 755.161 394.285 749.291 391.125C743.421 387.964 738.535 383.257 735.165 377.516L680.976 290.928L657.675 316.251L657.309 351.563C657.116 359.607 655.234 367.521 651.784 374.795C648.675 381.208 643.713 386.548 637.537 390.128C630.882 393.681 623.416 395.453 615.868 395.272C606.678 395.609 597.656 392.759 590.338 387.207C583.333 381.354 578.687 373.174 577.256 364.174C576.397 359.971 576.006 355.686 576.091 351.397L578.022 174.404C578.421 160.598 582.382 149.845 589.705 142.046C594.619 136.468 601.019 132.395 608.163 130.3C615.306 128.206 622.899 128.175 630.059 130.212C637.219 132.248 643.652 136.269 648.611 141.806C653.571 147.344 656.852 154.171 658.075 161.494C658.936 165.697 659.316 169.983 659.206 174.271L658.774 224.817ZM978.32 356.408H892.974L886.816 375.458C885.891 378.654 884.31 381.623 882.172 384.177C880.035 386.731 877.388 388.814 874.401 390.294C868.064 393.741 860.948 395.512 853.73 395.438C848.251 395.463 842.829 394.332 837.819 392.119C832.763 389.876 828.229 386.61 824.505 382.528C820.949 378.437 818.517 373.497 817.448 368.19C817.145 366.292 817.023 364.37 817.082 362.449C817.18 356.709 818.133 351.016 819.911 345.556C821.709 339.416 825.171 329.194 830.297 315.122L886.35 163.817C889.504 154.348 894.865 145.761 901.995 138.76C908.594 133.065 917.144 130.128 925.861 130.563H951.391C960.044 130.136 968.533 133.021 975.124 138.627C981.984 145.657 987.003 154.263 989.737 163.684L1041.56 314.99C1045.95 326.933 1049.63 339.123 1052.58 351.497C1053.36 355.028 1053.75 358.634 1053.75 362.25C1053.79 366.811 1052.76 371.319 1050.76 375.42C1048.76 379.52 1045.82 383.101 1042.2 385.88C1034.95 392.076 1025.71 395.448 1016.17 395.371C1009.14 395.398 1002.22 393.676 996.028 390.36C990.067 387.196 985.595 381.819 983.579 375.392L978.32 356.408ZM964.04 305.332L937.744 211.841H936.978L908.119 305.332H964.04ZM1085.07 352.957L1087.23 183.697C1087.5 166.705 1091.33 154.425 1098.92 146.758C1106.5 139.092 1118.29 135.109 1134.16 135.109H1207.56C1237.19 135.109 1261.42 139.955 1280.02 149.679C1298.63 159.403 1310.48 175.898 1315.11 199.129C1316.52 207.104 1317.2 215.192 1317.14 223.29C1316.77 245.394 1311.75 263.116 1302.26 275.96C1292.66 289.13 1279.03 298.832 1263.41 303.606C1244.46 309.384 1224.71 312.139 1204.9 311.77H1164.52L1164.26 352.957C1164.26 366.664 1160.53 377.151 1153.6 384.552C1146.68 391.953 1136.69 395.438 1123.98 395.438C1114.92 395.868 1105.97 393.25 1098.58 388.004C1091.9 382.52 1087.48 374.786 1086.13 366.265C1085.35 361.885 1085.02 357.437 1085.13 352.99L1085.07 352.957ZM1165.35 249.874H1210.12C1217.24 250.024 1224.17 247.568 1229.6 242.971C1232.35 240.573 1234.54 237.605 1236.02 234.275C1237.51 230.945 1238.24 227.332 1238.18 223.689C1237.92 220.37 1237.78 218.312 1237.52 217.051C1236.97 214.024 1235.8 211.143 1234.09 208.59C1232.37 206.036 1230.14 203.866 1227.53 202.216C1221.38 198.559 1214.28 196.782 1207.13 197.105H1166.19L1165.35 249.874ZM1488.56 318.043C1487.89 313.471 1485.52 309.322 1481.9 306.427C1477.19 303.089 1471.95 300.576 1466.39 298.993L1412.5 283.527C1397.28 279.611 1383.18 272.214 1371.33 261.922C1361.2 252.857 1354.35 240.712 1351.86 227.373C1350.91 222.274 1350.52 217.089 1350.69 211.907C1350.94 197.488 1354.73 183.35 1361.71 170.72C1369.47 157.668 1381 147.257 1394.79 140.851C1409.8 133.151 1428.4 129.312 1450.62 129.335C1466.57 129.263 1482.49 130.674 1498.18 133.549C1511.94 135.943 1525.13 140.885 1537.06 148.119C1542.07 150.975 1546.42 154.855 1549.82 159.505C1553.22 164.156 1555.6 169.47 1556.8 175.101C1557.25 177.9 1557.46 180.73 1557.43 183.564C1557.56 187.971 1556.74 192.355 1555.01 196.416C1553.29 200.476 1550.71 204.119 1547.44 207.095C1540.28 213.03 1531.16 216.104 1521.85 215.724C1517.05 215.98 1512.28 214.826 1508.13 212.405C1503.22 208.946 1498.59 205.107 1494.29 200.922C1489.11 195.954 1483.24 191.772 1476.84 188.509C1469.82 185.477 1462.19 184.081 1454.54 184.427C1448.01 184.275 1441.54 185.722 1435.7 188.642C1433.23 189.817 1431.15 191.666 1429.7 193.975C1428.24 196.284 1427.47 198.958 1427.48 201.685C1428.36 206.817 1431.21 211.404 1435.44 214.462C1441.51 217.933 1448.01 220.589 1454.78 222.361L1496.58 234.01C1508.08 237.03 1519.23 241.223 1529.87 246.522C1538.95 251.058 1546.98 257.42 1553.47 265.207C1559.86 272.954 1564.16 282.193 1565.98 292.056C1567.11 297.96 1567.53 303.975 1567.25 309.978C1567.7 327.349 1562.39 344.383 1552.14 358.433C1541.97 371.467 1528.44 381.504 1512.99 387.473C1496.34 393.814 1478.63 396.978 1460.8 396.798C1426.27 396.798 1400.02 391.267 1382.05 380.204C1364.07 369.142 1353.69 356.563 1350.89 342.469C1350.43 340.061 1350.18 337.619 1350.12 335.168C1350.16 329.208 1351.73 323.358 1354.68 318.176C1357.66 313.153 1361.97 309.043 1367.13 306.294C1372.56 303.328 1378.69 301.851 1384.88 302.013C1390.53 301.851 1396.09 303.452 1400.79 306.593C1406.46 310.708 1411.75 315.341 1416.56 320.432C1421.85 325.977 1427.92 330.728 1434.57 334.537C1441.42 338.072 1449.06 339.797 1456.77 339.549C1464.6 339.841 1472.37 337.981 1479.21 334.172C1482.06 332.548 1484.42 330.199 1486.07 327.366C1487.71 324.532 1488.57 321.316 1488.56 318.043ZM1773.82 290.928L1775.22 174.57C1775.49 160.897 1779.35 150.011 1786.64 142.212C1794.07 135.388 1803.63 131.31 1813.71 130.658C1823.8 130.006 1833.8 132.818 1842.06 138.627C1849.11 144.442 1853.77 152.641 1855.14 161.66C1856.02 165.905 1856.41 170.237 1856.31 174.57L1854.74 291.592C1855 308.239 1851.72 324.752 1845.12 340.047C1839.52 352.928 1830.75 364.194 1819.62 372.803C1808.02 381.344 1794.86 387.554 1780.88 391.09C1764.69 395.073 1748.06 397.002 1731.38 396.832C1699.3 396.832 1672.87 390.825 1652.23 378.545C1631.59 366.265 1618.51 347.083 1613.25 320.466C1611.47 310.944 1610.56 301.278 1610.55 291.592L1612.22 174.57C1612.22 160.764 1616.18 150.011 1623.64 142.212C1631.09 135.385 1640.66 131.308 1650.76 130.655C1660.86 130.003 1670.88 132.817 1679.16 138.627C1686.14 144.497 1690.78 152.669 1692.24 161.66C1693.11 165.906 1693.5 170.237 1693.4 174.57L1692.01 290.928C1691.9 295.758 1692.3 300.585 1693.2 305.332C1697.07 325.023 1710.11 334.869 1732.35 334.869C1746.2 334.869 1756.58 331.019 1763.37 323.353C1770.16 315.686 1773.76 304.801 1773.89 290.862L1773.82 290.928ZM1989.55 324.846H2074.46C2082.46 324.46 2090.36 326.699 2096.96 331.219C2102.88 335.711 2106.83 342.311 2107.98 349.638C2108.64 352.275 2108.94 354.987 2108.88 357.703C2109.08 362.252 2108.3 366.791 2106.57 371.007C2104.85 375.224 2102.23 379.018 2098.89 382.129C2091.9 388.138 2082.89 391.291 2073.66 390.957H1953.6C1940.75 390.957 1930.63 388.269 1923.31 383.158C1915.66 377.377 1910.59 368.832 1909.2 359.362C1908.14 353.751 1907.72 348.041 1907.93 342.337L1909.96 174.57C1910.36 160.764 1914.22 150.011 1921.65 142.212C1925.5 138.286 1930.15 135.219 1935.27 133.211C1940.4 131.203 1945.9 130.301 1951.4 130.563C1960.66 130.195 1969.75 133.046 1977.13 138.627C1983.97 144.58 1988.5 152.727 1989.95 161.66C1990.81 165.908 1991.2 170.237 1991.11 174.57L1989.55 324.846ZM2277.64 356.408H2192.43L2186.27 375.458C2185.34 378.655 2183.75 381.625 2181.61 384.178C2179.46 386.732 2176.81 388.814 2173.82 390.294C2167.48 393.741 2160.37 395.512 2153.15 395.438C2147.68 395.459 2142.27 394.328 2137.27 392.119C2132.21 389.891 2127.67 386.623 2123.96 382.528C2120.38 378.404 2117.96 373.413 2116.94 368.057C2116.6 366.163 2116.46 364.238 2116.54 362.316C2116.63 356.576 2117.59 350.883 2119.37 345.423C2121.16 339.283 2124.62 329.061 2129.75 314.99L2185.8 163.684C2188.9 154.289 2194.17 145.751 2201.18 138.76C2207.78 133.065 2216.33 130.128 2225.05 130.563H2250.58C2259.23 130.123 2267.73 133.009 2274.31 138.627C2281.12 145.693 2286.13 154.286 2288.92 163.684L2340.75 314.99C2345.15 326.927 2348.83 339.118 2351.77 351.497C2352.55 355.028 2352.94 358.634 2352.93 362.25C2352.97 366.811 2351.95 371.319 2349.95 375.42C2347.94 379.52 2345.01 383.101 2341.38 385.88C2334.14 392.076 2324.9 395.448 2315.35 395.371C2308.38 395.367 2301.52 393.645 2295.38 390.36C2289.42 387.196 2284.95 381.819 2282.93 375.392L2277.64 356.408ZM2263.39 305.332L2237.1 211.841H2236.33L2207.54 305.332H2263.39Z" fill="#00995F"/>
<circle cx="263.5" cy="263.5" r="262.5" fill="white"/>
<path fill-rule="evenodd" clip-rule="evenodd" d="M181.51 146.426C172.64 146.453 164.141 149.98 157.873 156.236C151.604 162.493 148.075 170.97 148.057 179.814V346.319C148.332 355.005 151.985 363.243 158.244 369.29C164.504 375.338 172.877 378.719 181.593 378.719C190.308 378.719 198.682 375.338 204.941 369.29C211.2 363.243 214.854 355.005 215.128 346.319V179.814C215.093 170.947 211.536 162.455 205.235 156.197C198.934 149.94 190.403 146.426 181.51 146.426V146.426Z" fill="#00995F"/>
<path fill-rule="evenodd" clip-rule="evenodd" d="M263.859 8.37892e-06C211.684 -0.0131196 160.677 15.4005 117.289 44.2917C73.9006 73.1829 40.0794 114.254 20.1024 162.311C0.125408 210.368 -5.10999 263.252 5.05826 314.276C15.2265 365.299 40.3417 412.171 77.2277 448.962C114.114 485.754 161.114 510.813 212.284 520.971C263.454 531.128 316.496 525.928 364.702 506.028C412.909 486.128 454.113 452.422 483.106 409.172C512.099 365.922 527.577 315.071 527.584 263.05C527.575 193.305 499.79 126.417 450.337 77.0904C400.884 27.7638 333.809 0.0352016 263.859 8.37892e-06V8.37892e-06ZM263.859 516.409C226.764 516.477 190.105 508.435 156.464 492.848C122.824 477.262 93.0197 454.511 69.1518 426.198C45.2838 397.885 27.9323 364.698 18.3195 328.976C8.70673 293.253 7.06647 255.864 13.5143 219.441L67.2379 290.928H29.658C36.5409 341.939 59.8516 389.342 96.083 426.006C132.314 462.669 179.507 486.61 230.561 494.227C281.615 501.844 333.769 492.725 379.177 468.241C424.585 443.758 460.791 405.234 482.348 358.466L492.867 372.803C472.127 415.809 439.63 452.103 399.117 477.508C358.603 502.914 311.719 516.398 263.859 516.409ZM306.465 150.774C312.962 140.278 323.375 132.785 335.414 129.943C347.452 127.102 360.129 129.145 370.657 135.624C381.184 142.102 388.699 152.485 391.549 164.488C394.399 176.491 392.349 189.131 385.852 199.627L346.608 263.05L385.852 326.506C392.332 337.002 394.364 349.635 391.502 361.626C388.64 373.616 381.118 383.982 370.59 390.443C365.378 393.642 359.584 395.786 353.54 396.752C347.497 397.719 341.321 397.489 335.367 396.076C323.341 393.223 312.944 385.722 306.465 375.226L293.15 353.853L291.719 351.563L284.03 339.15L277.373 328.298L259.931 300.154L267.62 287.742C283.531 313.319 299.353 338.896 315.086 364.473C317.328 368.343 320.325 371.724 323.9 374.419C327.476 377.113 331.557 379.065 335.902 380.16C340.248 381.254 344.769 381.468 349.199 380.79C353.629 380.112 357.877 378.555 361.693 376.211C365.509 373.867 368.814 370.783 371.414 367.143C374.014 363.503 375.855 359.381 376.829 355.019C377.803 350.657 377.889 346.145 377.084 341.749C376.278 337.353 374.596 333.163 372.138 329.426C349.537 292.72 346.208 284.556 330.298 264.61L372.238 196.574C374.696 192.837 376.378 188.647 377.184 184.251C377.989 179.856 377.903 175.343 376.929 170.981C375.955 166.619 374.114 162.497 371.514 158.857C368.914 155.217 365.608 152.134 361.793 149.79C357.977 147.446 353.728 145.888 349.299 145.21C344.869 144.532 340.347 144.746 336.002 145.84C331.657 146.935 327.576 148.887 324 151.581C320.425 154.276 317.427 157.658 315.186 161.527L228.209 302.311V350.799C228.209 363.122 223.3 374.941 214.56 383.654C205.821 392.368 193.968 397.263 181.609 397.263C169.25 397.263 157.397 392.368 148.657 383.654C139.918 374.941 135.008 363.122 135.008 350.799V175.201C135.008 162.878 139.918 151.06 148.657 142.346C157.397 133.632 169.25 128.737 181.609 128.737C193.968 128.737 205.821 133.632 214.56 142.346C223.3 151.06 228.209 162.878 228.209 175.201V277.387L306.465 150.774ZM460.379 235.172H498.093C491.18 184.185 467.859 136.812 431.634 100.17C395.409 63.5287 348.237 39.5976 297.204 31.9727C246.172 24.3478 194.036 33.441 148.63 57.886C103.224 82.3309 67.0008 120.807 45.4023 167.534L34.6509 153.33C59.5823 101.543 101.42 59.7379 153.305 34.7674C205.19 9.79695 264.044 3.14268 320.219 15.8954C376.395 28.6482 426.558 60.0513 462.487 104.957C498.415 149.862 517.976 205.606 517.964 263.05C517.964 277.621 516.717 292.166 514.236 306.526L460.379 235.172Z" fill="#00995F"/>
</svg>
